<svg xmlns="http://www.w3.org/2000/svg" width="1500" height="470" viewBox="0 0 1500 470">
  <rect width="100%" height="100%" fill="white"/>
  <text x="385.0" y="37.0" font-family="Arial, sans-serif" font-size="15" font-weight="normal" text-anchor="middle">Achieved FPR vs Target FPR (mean +/- std across genomes and k)</text>
  <line x1="80.0" y1="55.0" x2="80.0" y2="395.0" stroke="#555" stroke-width="1.2"/>
  <line x1="80.0" y1="395.0" x2="690.0" y2="395.0" stroke="#555" stroke-width="1.2"/>
  <line x1="80.0" y1="55.0" x2="80.0" y2="395.0" stroke="#ddd" stroke-width="0.7"/>
  <text x="80.0" y="417.0" font-family="Arial, sans-serif" font-size="11" font-weight="normal" text-anchor="middle">1e-4</text>
  <line x1="385.0" y1="55.0" x2="385.0" y2="395.0" stroke="#ddd" stroke-width="0.7"/>
  <text x="385.0" y="417.0" font-family="Arial, sans-serif" font-size="11" font-weight="normal" text-anchor="middle">1e-3</text>
  <line x1="690.0" y1="55.0" x2="690.0" y2="395.0" stroke="#ddd" stroke-width="0.7"/>
  <text x="690.0" y="417.0" font-family="Arial, sans-serif" font-size="11" font-weight="normal" text-anchor="middle">1e-2</text>
  <line x1="80.0" y1="395.0" x2="690.0" y2="395.0" stroke="#ddd" stroke-width="0.7"/>
  <text x="72.0" y="399.0" font-family="Arial, sans-serif" font-size="11" font-weight="normal" text-anchor="end">1e-12</text>
  <line x1="80.0" y1="362.1" x2="690.0" y2="362.1" stroke="#ddd" stroke-width="0.7"/>
  <text x="72.0" y="366.1" font-family="Arial, sans-serif" font-size="11" font-weight="normal" text-anchor="end">1e-11</text>
  <line x1="80.0" y1="329.1" x2="690.0" y2="329.1" stroke="#ddd" stroke-width="0.7"/>
  <text x="72.0" y="333.1" font-family="Arial, sans-serif" font-size="11" font-weight="normal" text-anchor="end">1e-10</text>
  <line x1="80.0" y1="296.2" x2="690.0" y2="296.2" stroke="#ddd" stroke-width="0.7"/>
  <text x="72.0" y="300.2" font-family="Arial, sans-serif" font-size="11" font-weight="normal" text-anchor="end">1e-9</text>
  <line x1="80.0" y1="263.3" x2="690.0" y2="263.3" stroke="#ddd" stroke-width="0.7"/>
  <text x="72.0" y="267.3" font-family="Arial, sans-serif" font-size="11" font-weight="normal" text-anchor="end">1e-8</text>
  <line x1="80.0" y1="230.3" x2="690.0" y2="230.3" stroke="#ddd" stroke-width="0.7"/>
  <text x="72.0" y="234.3" font-family="Arial, sans-serif" font-size="11" font-weight="normal" text-anchor="end">1e-7</text>
  <line x1="80.0" y1="197.4" x2="690.0" y2="197.4" stroke="#ddd" stroke-width="0.7"/>
  <text x="72.0" y="201.4" font-family="Arial, sans-serif" font-size="11" font-weight="normal" text-anchor="end">1e-6</text>
  <line x1="80.0" y1="164.4" x2="690.0" y2="164.4" stroke="#ddd" stroke-width="0.7"/>
  <text x="72.0" y="168.4" font-family="Arial, sans-serif" font-size="11" font-weight="normal" text-anchor="end">1e-5</text>
  <line x1="80.0" y1="131.5" x2="690.0" y2="131.5" stroke="#ddd" stroke-width="0.7"/>
  <text x="72.0" y="135.5" font-family="Arial, sans-serif" font-size="11" font-weight="normal" text-anchor="end">1e-4</text>
  <line x1="80.0" y1="98.6" x2="690.0" y2="98.6" stroke="#ddd" stroke-width="0.7"/>
  <text x="72.0" y="102.6" font-family="Arial, sans-serif" font-size="11" font-weight="normal" text-anchor="end">1e-3</text>
  <line x1="80.0" y1="65.6" x2="690.0" y2="65.6" stroke="#ddd" stroke-width="0.7"/>
  <text x="72.0" y="69.6" font-family="Arial, sans-serif" font-size="11" font-weight="normal" text-anchor="end">1e-2</text>
  <line x1="80.0" y1="32.7" x2="690.0" y2="32.7" stroke="#ddd" stroke-width="0.7"/>
  <text x="72.0" y="36.7" font-family="Arial, sans-serif" font-size="11" font-weight="normal" text-anchor="end">1e-1</text>
  <text x="385.0" y="443.0" font-family="Arial, sans-serif" font-size="13" font-weight="normal" text-anchor="middle">Target FPR</text>
  <text x="25.0" y="225.0" font-family="Arial, sans-serif" font-size="13" text-anchor="middle" transform="rotate(-90 25.0 225.0)">Empirical FPR</text>
  <line x1="80.0" y1="131.5" x2="690.0" y2="65.6" stroke="#777" stroke-width="1.2" stroke-dasharray="4 4"/>
  <line x1="80.0" y1="141.4" x2="80.0" y2="117.5" stroke="#1f77b4" stroke-width="1.0"/>
  <line x1="76.0" y1="141.4" x2="84.0" y2="141.4" stroke="#1f77b4" stroke-width="1.0"/>
  <line x1="76.0" y1="117.5" x2="84.0" y2="117.5" stroke="#1f77b4" stroke-width="1.0"/>
  <line x1="385.0" y1="101.4" x2="385.0" y2="94.7" stroke="#1f77b4" stroke-width="1.0"/>
  <line x1="381.0" y1="101.4" x2="389.0" y2="101.4" stroke="#1f77b4" stroke-width="1.0"/>
  <line x1="381.0" y1="94.7" x2="389.0" y2="94.7" stroke="#1f77b4" stroke-width="1.0"/>
  <line x1="690.0" y1="67.5" x2="690.0" y2="64.2" stroke="#1f77b4" stroke-width="1.0"/>
  <line x1="686.0" y1="67.5" x2="694.0" y2="67.5" stroke="#1f77b4" stroke-width="1.0"/>
  <line x1="686.0" y1="64.2" x2="694.0" y2="64.2" stroke="#1f77b4" stroke-width="1.0"/>
  <polyline points="80.0,125.7 385.0,97.6 690.0,65.8" fill="none" stroke="#1f77b4" stroke-width="2"/>
  <circle cx="80.0" cy="125.7" r="4.0" fill="#1f77b4" stroke="white" stroke-width="1"/>
  <circle cx="385.0" cy="97.6" r="4.0" fill="#1f77b4" stroke="white" stroke-width="1"/>
  <circle cx="690.0" cy="65.8" r="4.0" fill="#1f77b4" stroke="white" stroke-width="1"/>
  <line x1="80.0" y1="141.4" x2="80.0" y2="128.3" stroke="#ff7f0e" stroke-width="1.0"/>
  <line x1="76.0" y1="141.4" x2="84.0" y2="141.4" stroke="#ff7f0e" stroke-width="1.0"/>
  <line x1="76.0" y1="128.3" x2="84.0" y2="128.3" stroke="#ff7f0e" stroke-width="1.0"/>
  <line x1="385.0" y1="118.1" x2="385.0" y2="100.2" stroke="#ff7f0e" stroke-width="1.0"/>
  <line x1="381.0" y1="118.1" x2="389.0" y2="118.1" stroke="#ff7f0e" stroke-width="1.0"/>
  <line x1="381.0" y1="100.2" x2="389.0" y2="100.2" stroke="#ff7f0e" stroke-width="1.0"/>
  <line x1="690.0" y1="80.7" x2="690.0" y2="76.0" stroke="#ff7f0e" stroke-width="1.0"/>
  <line x1="686.0" y1="80.7" x2="694.0" y2="80.7" stroke="#ff7f0e" stroke-width="1.0"/>
  <line x1="686.0" y1="76.0" x2="694.0" y2="76.0" stroke="#ff7f0e" stroke-width="1.0"/>
  <polyline points="80.0,139.2 385.0,106.5 690.0,78.2" fill="none" stroke="#ff7f0e" stroke-width="2"/>
  <circle cx="80.0" cy="139.2" r="4.0" fill="#ff7f0e" stroke="white" stroke-width="1"/>
  <circle cx="385.0" cy="106.5" r="4.0" fill="#ff7f0e" stroke="white" stroke-width="1"/>
  <circle cx="690.0" cy="78.2" r="4.0" fill="#ff7f0e" stroke="white" stroke-width="1"/>
  <line x1="80.0" y1="141.4" x2="80.0" y2="125.2" stroke="#d62728" stroke-width="1.0"/>
  <line x1="76.0" y1="141.4" x2="84.0" y2="141.4" stroke="#d62728" stroke-width="1.0"/>
  <line x1="76.0" y1="125.2" x2="84.0" y2="125.2" stroke="#d62728" stroke-width="1.0"/>
  <line x1="385.0" y1="104.8" x2="385.0" y2="97.8" stroke="#d62728" stroke-width="1.0"/>
  <line x1="381.0" y1="104.8" x2="389.0" y2="104.8" stroke="#d62728" stroke-width="1.0"/>
  <line x1="381.0" y1="97.8" x2="389.0" y2="97.8" stroke="#d62728" stroke-width="1.0"/>
  <line x1="690.0" y1="71.1" x2="690.0" y2="68.0" stroke="#d62728" stroke-width="1.0"/>
  <line x1="686.0" y1="71.1" x2="694.0" y2="71.1" stroke="#d62728" stroke-width="1.0"/>
  <line x1="686.0" y1="68.0" x2="694.0" y2="68.0" stroke="#d62728" stroke-width="1.0"/>
  <polyline points="80.0,137.3 385.0,100.9 690.0,69.4" fill="none" stroke="#d62728" stroke-width="2"/>
  <circle cx="80.0" cy="137.3" r="4.0" fill="#d62728" stroke="white" stroke-width="1"/>
  <circle cx="385.0" cy="100.9" r="4.0" fill="#d62728" stroke="white" stroke-width="1"/>
  <circle cx="690.0" cy="69.4" r="4.0" fill="#d62728" stroke="white" stroke-width="1"/>
  <line x1="80.0" y1="141.4" x2="80.0" y2="119.4" stroke="#2ca02c" stroke-width="1.0"/>
  <line x1="76.0" y1="141.4" x2="84.0" y2="141.4" stroke="#2ca02c" stroke-width="1.0"/>
  <line x1="76.0" y1="119.4" x2="84.0" y2="119.4" stroke="#2ca02c" stroke-width="1.0"/>
  <line x1="385.0" y1="102.8" x2="385.0" y2="94.0" stroke="#2ca02c" stroke-width="1.0"/>
  <line x1="381.0" y1="102.8" x2="389.0" y2="102.8" stroke="#2ca02c" stroke-width="1.0"/>
  <line x1="381.0" y1="94.0" x2="389.0" y2="94.0" stroke="#2ca02c" stroke-width="1.0"/>
  <line x1="690.0" y1="58.1" x2="690.0" y2="55.0" stroke="#2ca02c" stroke-width="1.0"/>
  <line x1="686.0" y1="58.1" x2="694.0" y2="58.1" stroke="#2ca02c" stroke-width="1.0"/>
  <line x1="686.0" y1="55.0" x2="694.0" y2="55.0" stroke="#2ca02c" stroke-width="1.0"/>
  <polyline points="80.0,130.4 385.0,97.8 690.0,56.5" fill="none" stroke="#2ca02c" stroke-width="2"/>
  <circle cx="80.0" cy="130.4" r="4.0" fill="#2ca02c" stroke="white" stroke-width="1"/>
  <circle cx="385.0" cy="97.8" r="4.0" fill="#2ca02c" stroke="white" stroke-width="1"/>
  <circle cx="690.0" cy="56.5" r="4.0" fill="#2ca02c" stroke="white" stroke-width="1"/>
  <line x1="95.0" y1="69.0" x2="113.0" y2="69.0" stroke="#1f77b4" stroke-width="2.0"/>
  <circle cx="104.0" cy="69.0" r="3.5" fill="#1f77b4" stroke="white" stroke-width="1"/>
  <text x="121.0" y="73.0" font-family="Arial, sans-serif" font-size="12" font-weight="normal" text-anchor="start">bloom</text>
  <line x1="95.0" y1="89.0" x2="113.0" y2="89.0" stroke="#ff7f0e" stroke-width="2.0"/>
  <circle cx="104.0" cy="89.0" r="3.5" fill="#ff7f0e" stroke="white" stroke-width="1"/>
  <text x="121.0" y="93.0" font-family="Arial, sans-serif" font-size="12" font-weight="normal" text-anchor="start">cuckoo</text>
  <line x1="95.0" y1="109.0" x2="113.0" y2="109.0" stroke="#d62728" stroke-width="2.0"/>
  <circle cx="104.0" cy="109.0" r="3.5" fill="#d62728" stroke="white" stroke-width="1"/>
  <text x="121.0" y="113.0" font-family="Arial, sans-serif" font-size="12" font-weight="normal" text-anchor="start">xor</text>
  <line x1="95.0" y1="129.0" x2="113.0" y2="129.0" stroke="#2ca02c" stroke-width="2.0"/>
  <circle cx="104.0" cy="129.0" r="3.5" fill="#2ca02c" stroke="white" stroke-width="1"/>
  <text x="121.0" y="133.0" font-family="Arial, sans-serif" font-size="12" font-weight="normal" text-anchor="start">learned</text>
  <line x1="95.0" y1="149.0" x2="113.0" y2="149.0" stroke="#555" stroke-width="2.0"/>
  <circle cx="104.0" cy="149.0" r="3.5" fill="#555" stroke="white" stroke-width="1"/>
  <text x="121.0" y="153.0" font-family="Arial, sans-serif" font-size="12" font-weight="normal" text-anchor="start">ideal</text>
  <text x="1130.0" y="37.0" font-family="Arial, sans-serif" font-size="15" font-weight="normal" text-anchor="middle">Memory per k-mer by Filter and k (target FPR=1.0e-03; unweighted mean +/- std across genomes)</text>
  <line x1="825.0" y1="55.0" x2="825.0" y2="395.0" stroke="#555" stroke-width="1.2"/>
  <line x1="825.0" y1="395.0" x2="1435.0" y2="395.0" stroke="#555" stroke-width="1.2"/>
  <line x1="858.9" y1="55.0" x2="858.9" y2="395.0" stroke="#ddd" stroke-width="0.7"/>
  <text x="858.9" y="417.0" font-family="Arial, sans-serif" font-size="11" font-weight="normal" text-anchor="middle">15.0</text>
  <line x1="1062.2" y1="55.0" x2="1062.2" y2="395.0" stroke="#ddd" stroke-width="0.7"/>
  <text x="1062.2" y="417.0" font-family="Arial, sans-serif" font-size="11" font-weight="normal" text-anchor="middle">21.0</text>
  <line x1="1401.1" y1="55.0" x2="1401.1" y2="395.0" stroke="#ddd" stroke-width="0.7"/>
  <text x="1401.1" y="417.0" font-family="Arial, sans-serif" font-size="11" font-weight="normal" text-anchor="middle">31.0</text>
  <line x1="825.0" y1="378.0" x2="1435.0" y2="378.0" stroke="#ddd" stroke-width="0.7"/>
  <text x="817.0" y="382.0" font-family="Arial, sans-serif" font-size="11" font-weight="normal" text-anchor="end">1.50</text>
  <line x1="825.0" y1="292.0" x2="1435.0" y2="292.0" stroke="#ddd" stroke-width="0.7"/>
  <text x="817.0" y="296.0" font-family="Arial, sans-serif" font-size="11" font-weight="normal" text-anchor="end">2.00</text>
  <line x1="825.0" y1="206.0" x2="1435.0" y2="206.0" stroke="#ddd" stroke-width="0.7"/>
  <text x="817.0" y="210.0" font-family="Arial, sans-serif" font-size="11" font-weight="normal" text-anchor="end">2.50</text>
  <line x1="825.0" y1="120.0" x2="1435.0" y2="120.0" stroke="#ddd" stroke-width="0.7"/>
  <text x="817.0" y="124.0" font-family="Arial, sans-serif" font-size="11" font-weight="normal" text-anchor="end">3.00</text>
  <line x1="825.0" y1="34.0" x2="1435.0" y2="34.0" stroke="#ddd" stroke-width="0.7"/>
  <text x="817.0" y="38.0" font-family="Arial, sans-serif" font-size="11" font-weight="normal" text-anchor="end">3.50</text>
  <text x="1130.0" y="443.0" font-family="Arial, sans-serif" font-size="13" font-weight="normal" text-anchor="middle">k</text>
  <text x="770.0" y="225.0" font-family="Arial, sans-serif" font-size="13" text-anchor="middle" transform="rotate(-90 770.0 225.0)">Bytes per inserted k-mer</text>
  <line x1="858.9" y1="326.9" x2="858.9" y2="326.9" stroke="#1f77b4" stroke-width="1.0"/>
  <line x1="854.9" y1="326.9" x2="862.9" y2="326.9" stroke="#1f77b4" stroke-width="1.0"/>
  <line x1="854.9" y1="326.9" x2="862.9" y2="326.9" stroke="#1f77b4" stroke-width="1.0"/>
  <line x1="1062.2" y1="326.9" x2="1062.2" y2="326.9" stroke="#1f77b4" stroke-width="1.0"/>
  <line x1="1058.2" y1="326.9" x2="1066.2" y2="326.9" stroke="#1f77b4" stroke-width="1.0"/>
  <line x1="1058.2" y1="326.9" x2="1066.2" y2="326.9" stroke="#1f77b4" stroke-width="1.0"/>
  <line x1="1401.1" y1="326.9" x2="1401.1" y2="326.9" stroke="#1f77b4" stroke-width="1.0"/>
  <line x1="1397.1" y1="326.9" x2="1405.1" y2="326.9" stroke="#1f77b4" stroke-width="1.0"/>
  <line x1="1397.1" y1="326.9" x2="1405.1" y2="326.9" stroke="#1f77b4" stroke-width="1.0"/>
  <polyline points="858.9,326.9 1062.2,326.9 1401.1,326.9" fill="none" stroke="#1f77b4" stroke-width="2"/>
  <circle cx="858.9" cy="326.9" r="4.0" fill="#1f77b4" stroke="white" stroke-width="1"/>
  <circle cx="1062.2" cy="326.9" r="4.0" fill="#1f77b4" stroke="white" stroke-width="1"/>
  <circle cx="1401.1" cy="326.9" r="4.0" fill="#1f77b4" stroke="white" stroke-width="1"/>
  <line x1="858.9" y1="220.0" x2="858.9" y2="78.4" stroke="#ff7f0e" stroke-width="1.0"/>
  <line x1="854.9" y1="220.0" x2="862.9" y2="220.0" stroke="#ff7f0e" stroke-width="1.0"/>
  <line x1="854.9" y1="78.4" x2="862.9" y2="78.4" stroke="#ff7f0e" stroke-width="1.0"/>
  <line x1="1062.2" y1="244.7" x2="1062.2" y2="81.2" stroke="#ff7f0e" stroke-width="1.0"/>
  <line x1="1058.2" y1="244.7" x2="1066.2" y2="244.7" stroke="#ff7f0e" stroke-width="1.0"/>
  <line x1="1058.2" y1="81.2" x2="1066.2" y2="81.2" stroke="#ff7f0e" stroke-width="1.0"/>
  <line x1="1401.1" y1="247.6" x2="1401.1" y2="82.4" stroke="#ff7f0e" stroke-width="1.0"/>
  <line x1="1397.1" y1="247.6" x2="1405.1" y2="247.6" stroke="#ff7f0e" stroke-width="1.0"/>
  <line x1="1397.1" y1="82.4" x2="1405.1" y2="82.4" stroke="#ff7f0e" stroke-width="1.0"/>
  <polyline points="858.9,149.2 1062.2,162.9 1401.1,165.0" fill="none" stroke="#ff7f0e" stroke-width="2"/>
  <circle cx="858.9" cy="149.2" r="4.0" fill="#ff7f0e" stroke="white" stroke-width="1"/>
  <circle cx="1062.2" cy="162.9" r="4.0" fill="#ff7f0e" stroke="white" stroke-width="1"/>
  <circle cx="1401.1" cy="165.0" r="4.0" fill="#ff7f0e" stroke="white" stroke-width="1"/>
  <line x1="858.9" y1="371.6" x2="858.9" y2="371.6" stroke="#d62728" stroke-width="1.0"/>
  <line x1="854.9" y1="371.6" x2="862.9" y2="371.6" stroke="#d62728" stroke-width="1.0"/>
  <line x1="854.9" y1="371.6" x2="862.9" y2="371.6" stroke="#d62728" stroke-width="1.0"/>
  <line x1="1062.2" y1="371.6" x2="1062.2" y2="371.6" stroke="#d62728" stroke-width="1.0"/>
  <line x1="1058.2" y1="371.6" x2="1066.2" y2="371.6" stroke="#d62728" stroke-width="1.0"/>
  <line x1="1058.2" y1="371.6" x2="1066.2" y2="371.6" stroke="#d62728" stroke-width="1.0"/>
  <line x1="1401.1" y1="371.6" x2="1401.1" y2="371.6" stroke="#d62728" stroke-width="1.0"/>
  <line x1="1397.1" y1="371.6" x2="1405.1" y2="371.6" stroke="#d62728" stroke-width="1.0"/>
  <line x1="1397.1" y1="371.6" x2="1405.1" y2="371.6" stroke="#d62728" stroke-width="1.0"/>
  <polyline points="858.9,371.6 1062.2,371.6 1401.1,371.6" fill="none" stroke="#d62728" stroke-width="2"/>
  <circle cx="858.9" cy="371.6" r="4.0" fill="#d62728" stroke="white" stroke-width="1"/>
  <circle cx="1062.2" cy="371.6" r="4.0" fill="#d62728" stroke="white" stroke-width="1"/>
  <circle cx="1401.1" cy="371.6" r="4.0" fill="#d62728" stroke="white" stroke-width="1"/>
  <line x1="858.9" y1="326.7" x2="858.9" y2="325.1" stroke="#2ca02c" stroke-width="1.0"/>
  <line x1="854.9" y1="326.7" x2="862.9" y2="326.7" stroke="#2ca02c" stroke-width="1.0"/>
  <line x1="854.9" y1="325.1" x2="862.9" y2="325.1" stroke="#2ca02c" stroke-width="1.0"/>
  <line x1="1062.2" y1="326.7" x2="1062.2" y2="325.2" stroke="#2ca02c" stroke-width="1.0"/>
  <line x1="1058.2" y1="326.7" x2="1066.2" y2="326.7" stroke="#2ca02c" stroke-width="1.0"/>
  <line x1="1058.2" y1="325.2" x2="1066.2" y2="325.2" stroke="#2ca02c" stroke-width="1.0"/>
  <line x1="1401.1" y1="326.7" x2="1401.1" y2="325.2" stroke="#2ca02c" stroke-width="1.0"/>
  <line x1="1397.1" y1="326.7" x2="1405.1" y2="326.7" stroke="#2ca02c" stroke-width="1.0"/>
  <line x1="1397.1" y1="325.2" x2="1405.1" y2="325.2" stroke="#2ca02c" stroke-width="1.0"/>
  <polyline points="858.9,325.9 1062.2,325.9 1401.1,325.9" fill="none" stroke="#2ca02c" stroke-width="2"/>
  <circle cx="858.9" cy="325.9" r="4.0" fill="#2ca02c" stroke="white" stroke-width="1"/>
  <circle cx="1062.2" cy="325.9" r="4.0" fill="#2ca02c" stroke="white" stroke-width="1"/>
  <circle cx="1401.1" cy="325.9" r="4.0" fill="#2ca02c" stroke="white" stroke-width="1"/>
  <line x1="840.0" y1="69.0" x2="858.0" y2="69.0" stroke="#1f77b4" stroke-width="2.0"/>
  <circle cx="849.0" cy="69.0" r="3.5" fill="#1f77b4" stroke="white" stroke-width="1"/>
  <text x="866.0" y="73.0" font-family="Arial, sans-serif" font-size="12" font-weight="normal" text-anchor="start">bloom</text>
  <line x1="840.0" y1="89.0" x2="858.0" y2="89.0" stroke="#ff7f0e" stroke-width="2.0"/>
  <circle cx="849.0" cy="89.0" r="3.5" fill="#ff7f0e" stroke="white" stroke-width="1"/>
  <text x="866.0" y="93.0" font-family="Arial, sans-serif" font-size="12" font-weight="normal" text-anchor="start">cuckoo</text>
  <line x1="840.0" y1="109.0" x2="858.0" y2="109.0" stroke="#d62728" stroke-width="2.0"/>
  <circle cx="849.0" cy="109.0" r="3.5" fill="#d62728" stroke="white" stroke-width="1"/>
  <text x="866.0" y="113.0" font-family="Arial, sans-serif" font-size="12" font-weight="normal" text-anchor="start">xor</text>
  <line x1="840.0" y1="129.0" x2="858.0" y2="129.0" stroke="#2ca02c" stroke-width="2.0"/>
  <circle cx="849.0" cy="129.0" r="3.5" fill="#2ca02c" stroke="white" stroke-width="1"/>
  <text x="866.0" y="133.0" font-family="Arial, sans-serif" font-size="12" font-weight="normal" text-anchor="start">learned</text>
</svg>
