<svg xmlns="http://www.w3.org/2000/svg" width="1500" height="470" viewBox="0 0 1500 470">
  <rect width="100%" height="100%" fill="white"/>
  <text x="385.0" y="37.0" font-family="Arial, sans-serif" font-size="15" font-weight="normal" text-anchor="middle">Build Time per 1M k-mers by Filter and k (target FPR=1.0e-03; unweighted mean +/- std across genomes)</text>
  <line x1="80.0" y1="55.0" x2="80.0" y2="395.0" stroke="#555" stroke-width="1.2"/>
  <line x1="80.0" y1="395.0" x2="690.0" y2="395.0" stroke="#555" stroke-width="1.2"/>
  <line x1="113.9" y1="55.0" x2="113.9" y2="395.0" stroke="#ddd" stroke-width="0.7"/>
  <text x="113.9" y="417.0" font-family="Arial, sans-serif" font-size="11" font-weight="normal" text-anchor="middle">15.0</text>
  <line x1="317.2" y1="55.0" x2="317.2" y2="395.0" stroke="#ddd" stroke-width="0.7"/>
  <text x="317.2" y="417.0" font-family="Arial, sans-serif" font-size="11" font-weight="normal" text-anchor="middle">21.0</text>
  <line x1="656.1" y1="55.0" x2="656.1" y2="395.0" stroke="#ddd" stroke-width="0.7"/>
  <text x="656.1" y="417.0" font-family="Arial, sans-serif" font-size="11" font-weight="normal" text-anchor="middle">31.0</text>
  <line x1="80.0" y1="395.0" x2="690.0" y2="395.0" stroke="#ddd" stroke-width="0.7"/>
  <text x="72.0" y="399.0" font-family="Arial, sans-serif" font-size="11" font-weight="normal" text-anchor="end">0.00</text>
  <line x1="80.0" y1="340.5" x2="690.0" y2="340.5" stroke="#ddd" stroke-width="0.7"/>
  <text x="72.0" y="344.5" font-family="Arial, sans-serif" font-size="11" font-weight="normal" text-anchor="end">20.0</text>
  <line x1="80.0" y1="286.0" x2="690.0" y2="286.0" stroke="#ddd" stroke-width="0.7"/>
  <text x="72.0" y="290.0" font-family="Arial, sans-serif" font-size="11" font-weight="normal" text-anchor="end">40.0</text>
  <line x1="80.0" y1="231.4" x2="690.0" y2="231.4" stroke="#ddd" stroke-width="0.7"/>
  <text x="72.0" y="235.4" font-family="Arial, sans-serif" font-size="11" font-weight="normal" text-anchor="end">60.0</text>
  <line x1="80.0" y1="176.9" x2="690.0" y2="176.9" stroke="#ddd" stroke-width="0.7"/>
  <text x="72.0" y="180.9" font-family="Arial, sans-serif" font-size="11" font-weight="normal" text-anchor="end">80.0</text>
  <line x1="80.0" y1="122.4" x2="690.0" y2="122.4" stroke="#ddd" stroke-width="0.7"/>
  <text x="72.0" y="126.4" font-family="Arial, sans-serif" font-size="11" font-weight="normal" text-anchor="end">100.0</text>
  <line x1="80.0" y1="67.9" x2="690.0" y2="67.9" stroke="#ddd" stroke-width="0.7"/>
  <text x="72.0" y="71.9" font-family="Arial, sans-serif" font-size="11" font-weight="normal" text-anchor="end">120.0</text>
  <text x="385.0" y="443.0" font-family="Arial, sans-serif" font-size="13" font-weight="normal" text-anchor="middle">k</text>
  <text x="25.0" y="225.0" font-family="Arial, sans-serif" font-size="13" text-anchor="middle" transform="rotate(-90 25.0 225.0)">Seconds per 1M inserted k-mers</text>
  <line x1="113.9" y1="381.1" x2="113.9" y2="379.0" stroke="#1f77b4" stroke-width="1.0"/>
  <line x1="109.9" y1="381.1" x2="117.9" y2="381.1" stroke="#1f77b4" stroke-width="1.0"/>
  <line x1="109.9" y1="379.0" x2="117.9" y2="379.0" stroke="#1f77b4" stroke-width="1.0"/>
  <line x1="317.2" y1="380.7" x2="317.2" y2="380.3" stroke="#1f77b4" stroke-width="1.0"/>
  <line x1="313.2" y1="380.7" x2="321.2" y2="380.7" stroke="#1f77b4" stroke-width="1.0"/>
  <line x1="313.2" y1="380.3" x2="321.2" y2="380.3" stroke="#1f77b4" stroke-width="1.0"/>
  <line x1="656.1" y1="381.2" x2="656.1" y2="380.5" stroke="#1f77b4" stroke-width="1.0"/>
  <line x1="652.1" y1="381.2" x2="660.1" y2="381.2" stroke="#1f77b4" stroke-width="1.0"/>
  <line x1="652.1" y1="380.5" x2="660.1" y2="380.5" stroke="#1f77b4" stroke-width="1.0"/>
  <polyline points="113.9,380.0 317.2,380.5 656.1,380.9" fill="none" stroke="#1f77b4" stroke-width="2"/>
  <circle cx="113.9" cy="380.0" r="4.0" fill="#1f77b4" stroke="white" stroke-width="1"/>
  <circle cx="317.2" cy="380.5" r="4.0" fill="#1f77b4" stroke="white" stroke-width="1"/>
  <circle cx="656.1" cy="380.9" r="4.0" fill="#1f77b4" stroke="white" stroke-width="1"/>
  <line x1="113.9" y1="385.0" x2="113.9" y2="384.9" stroke="#ff7f0e" stroke-width="1.0"/>
  <line x1="109.9" y1="385.0" x2="117.9" y2="385.0" stroke="#ff7f0e" stroke-width="1.0"/>
  <line x1="109.9" y1="384.9" x2="117.9" y2="384.9" stroke="#ff7f0e" stroke-width="1.0"/>
  <line x1="317.2" y1="385.2" x2="317.2" y2="384.6" stroke="#ff7f0e" stroke-width="1.0"/>
  <line x1="313.2" y1="385.2" x2="321.2" y2="385.2" stroke="#ff7f0e" stroke-width="1.0"/>
  <line x1="313.2" y1="384.6" x2="321.2" y2="384.6" stroke="#ff7f0e" stroke-width="1.0"/>
  <line x1="656.1" y1="385.1" x2="656.1" y2="384.6" stroke="#ff7f0e" stroke-width="1.0"/>
  <line x1="652.1" y1="385.1" x2="660.1" y2="385.1" stroke="#ff7f0e" stroke-width="1.0"/>
  <line x1="652.1" y1="384.6" x2="660.1" y2="384.6" stroke="#ff7f0e" stroke-width="1.0"/>
  <polyline points="113.9,385.0 317.2,384.9 656.1,384.9" fill="none" stroke="#ff7f0e" stroke-width="2"/>
  <circle cx="113.9" cy="385.0" r="4.0" fill="#ff7f0e" stroke="white" stroke-width="1"/>
  <circle cx="317.2" cy="384.9" r="4.0" fill="#ff7f0e" stroke="white" stroke-width="1"/>
  <circle cx="656.1" cy="384.9" r="4.0" fill="#ff7f0e" stroke="white" stroke-width="1"/>
  <line x1="113.9" y1="370.9" x2="113.9" y2="368.1" stroke="#d62728" stroke-width="1.0"/>
  <line x1="109.9" y1="370.9" x2="117.9" y2="370.9" stroke="#d62728" stroke-width="1.0"/>
  <line x1="109.9" y1="368.1" x2="117.9" y2="368.1" stroke="#d62728" stroke-width="1.0"/>
  <line x1="317.2" y1="371.6" x2="317.2" y2="369.1" stroke="#d62728" stroke-width="1.0"/>
  <line x1="313.2" y1="371.6" x2="321.2" y2="371.6" stroke="#d62728" stroke-width="1.0"/>
  <line x1="313.2" y1="369.1" x2="321.2" y2="369.1" stroke="#d62728" stroke-width="1.0"/>
  <line x1="656.1" y1="371.3" x2="656.1" y2="369.5" stroke="#d62728" stroke-width="1.0"/>
  <line x1="652.1" y1="371.3" x2="660.1" y2="371.3" stroke="#d62728" stroke-width="1.0"/>
  <line x1="652.1" y1="369.5" x2="660.1" y2="369.5" stroke="#d62728" stroke-width="1.0"/>
  <polyline points="113.9,369.5 317.2,370.4 656.1,370.4" fill="none" stroke="#d62728" stroke-width="2"/>
  <circle cx="113.9" cy="369.5" r="4.0" fill="#d62728" stroke="white" stroke-width="1"/>
  <circle cx="317.2" cy="370.4" r="4.0" fill="#d62728" stroke="white" stroke-width="1"/>
  <circle cx="656.1" cy="370.4" r="4.0" fill="#d62728" stroke="white" stroke-width="1"/>
  <line x1="113.9" y1="239.6" x2="113.9" y2="228.5" stroke="#2ca02c" stroke-width="1.0"/>
  <line x1="109.9" y1="239.6" x2="117.9" y2="239.6" stroke="#2ca02c" stroke-width="1.0"/>
  <line x1="109.9" y1="228.5" x2="117.9" y2="228.5" stroke="#2ca02c" stroke-width="1.0"/>
  <line x1="317.2" y1="184.9" x2="317.2" y2="180.2" stroke="#2ca02c" stroke-width="1.0"/>
  <line x1="313.2" y1="184.9" x2="321.2" y2="184.9" stroke="#2ca02c" stroke-width="1.0"/>
  <line x1="313.2" y1="180.2" x2="321.2" y2="180.2" stroke="#2ca02c" stroke-width="1.0"/>
  <line x1="656.1" y1="98.8" x2="656.1" y2="80.2" stroke="#2ca02c" stroke-width="1.0"/>
  <line x1="652.1" y1="98.8" x2="660.1" y2="98.8" stroke="#2ca02c" stroke-width="1.0"/>
  <line x1="652.1" y1="80.2" x2="660.1" y2="80.2" stroke="#2ca02c" stroke-width="1.0"/>
  <polyline points="113.9,234.0 317.2,182.6 656.1,89.5" fill="none" stroke="#2ca02c" stroke-width="2"/>
  <circle cx="113.9" cy="234.0" r="4.0" fill="#2ca02c" stroke="white" stroke-width="1"/>
  <circle cx="317.2" cy="182.6" r="4.0" fill="#2ca02c" stroke="white" stroke-width="1"/>
  <circle cx="656.1" cy="89.5" r="4.0" fill="#2ca02c" stroke="white" stroke-width="1"/>
  <line x1="95.0" y1="69.0" x2="113.0" y2="69.0" stroke="#1f77b4" stroke-width="2.0"/>
  <circle cx="104.0" cy="69.0" r="3.5" fill="#1f77b4" stroke="white" stroke-width="1"/>
  <text x="121.0" y="73.0" font-family="Arial, sans-serif" font-size="12" font-weight="normal" text-anchor="start">bloom</text>
  <line x1="95.0" y1="89.0" x2="113.0" y2="89.0" stroke="#ff7f0e" stroke-width="2.0"/>
  <circle cx="104.0" cy="89.0" r="3.5" fill="#ff7f0e" stroke="white" stroke-width="1"/>
  <text x="121.0" y="93.0" font-family="Arial, sans-serif" font-size="12" font-weight="normal" text-anchor="start">cuckoo</text>
  <line x1="95.0" y1="109.0" x2="113.0" y2="109.0" stroke="#d62728" stroke-width="2.0"/>
  <circle cx="104.0" cy="109.0" r="3.5" fill="#d62728" stroke="white" stroke-width="1"/>
  <text x="121.0" y="113.0" font-family="Arial, sans-serif" font-size="12" font-weight="normal" text-anchor="start">xor</text>
  <line x1="95.0" y1="129.0" x2="113.0" y2="129.0" stroke="#2ca02c" stroke-width="2.0"/>
  <circle cx="104.0" cy="129.0" r="3.5" fill="#2ca02c" stroke="white" stroke-width="1"/>
  <text x="121.0" y="133.0" font-family="Arial, sans-serif" font-size="12" font-weight="normal" text-anchor="start">learned</text>
  <text x="1130.0" y="37.0" font-family="Arial, sans-serif" font-size="15" font-weight="normal" text-anchor="middle">Mean Throughput by Filter and k (target FPR=1.0e-03; unweighted mean +/- std across genomes)</text>
  <line x1="825.0" y1="55.0" x2="825.0" y2="395.0" stroke="#555" stroke-width="1.2"/>
  <line x1="825.0" y1="395.0" x2="1435.0" y2="395.0" stroke="#555" stroke-width="1.2"/>
  <line x1="858.9" y1="55.0" x2="858.9" y2="395.0" stroke="#ddd" stroke-width="0.7"/>
  <text x="858.9" y="417.0" font-family="Arial, sans-serif" font-size="11" font-weight="normal" text-anchor="middle">15.0</text>
  <line x1="1062.2" y1="55.0" x2="1062.2" y2="395.0" stroke="#ddd" stroke-width="0.7"/>
  <text x="1062.2" y="417.0" font-family="Arial, sans-serif" font-size="11" font-weight="normal" text-anchor="middle">21.0</text>
  <line x1="1401.1" y1="55.0" x2="1401.1" y2="395.0" stroke="#ddd" stroke-width="0.7"/>
  <text x="1401.1" y="417.0" font-family="Arial, sans-serif" font-size="11" font-weight="normal" text-anchor="middle">31.0</text>
  <line x1="825.0" y1="395.0" x2="1435.0" y2="395.0" stroke="#ddd" stroke-width="0.7"/>
  <text x="817.0" y="399.0" font-family="Arial, sans-serif" font-size="11" font-weight="normal" text-anchor="end">0.00</text>
  <line x1="825.0" y1="336.9" x2="1435.0" y2="336.9" stroke="#ddd" stroke-width="0.7"/>
  <text x="817.0" y="340.9" font-family="Arial, sans-serif" font-size="11" font-weight="normal" text-anchor="end">50,000</text>
  <line x1="825.0" y1="278.8" x2="1435.0" y2="278.8" stroke="#ddd" stroke-width="0.7"/>
  <text x="817.0" y="282.8" font-family="Arial, sans-serif" font-size="11" font-weight="normal" text-anchor="end">100,000</text>
  <line x1="825.0" y1="220.7" x2="1435.0" y2="220.7" stroke="#ddd" stroke-width="0.7"/>
  <text x="817.0" y="224.7" font-family="Arial, sans-serif" font-size="11" font-weight="normal" text-anchor="end">150,000</text>
  <line x1="825.0" y1="162.6" x2="1435.0" y2="162.6" stroke="#ddd" stroke-width="0.7"/>
  <text x="817.0" y="166.6" font-family="Arial, sans-serif" font-size="11" font-weight="normal" text-anchor="end">200,000</text>
  <line x1="825.0" y1="104.5" x2="1435.0" y2="104.5" stroke="#ddd" stroke-width="0.7"/>
  <text x="817.0" y="108.5" font-family="Arial, sans-serif" font-size="11" font-weight="normal" text-anchor="end">250,000</text>
  <line x1="825.0" y1="46.4" x2="1435.0" y2="46.4" stroke="#ddd" stroke-width="0.7"/>
  <text x="817.0" y="50.4" font-family="Arial, sans-serif" font-size="11" font-weight="normal" text-anchor="end">300,000</text>
  <text x="1130.0" y="443.0" font-family="Arial, sans-serif" font-size="13" font-weight="normal" text-anchor="middle">k</text>
  <text x="770.0" y="225.0" font-family="Arial, sans-serif" font-size="13" text-anchor="middle" transform="rotate(-90 770.0 225.0)">Queries / second</text>
  <line x1="858.9" y1="166.8" x2="858.9" y2="129.5" stroke="#1f77b4" stroke-width="1.0"/>
  <line x1="854.9" y1="166.8" x2="862.9" y2="166.8" stroke="#1f77b4" stroke-width="1.0"/>
  <line x1="854.9" y1="129.5" x2="862.9" y2="129.5" stroke="#1f77b4" stroke-width="1.0"/>
  <line x1="1062.2" y1="149.0" x2="1062.2" y2="137.8" stroke="#1f77b4" stroke-width="1.0"/>
  <line x1="1058.2" y1="149.0" x2="1066.2" y2="149.0" stroke="#1f77b4" stroke-width="1.0"/>
  <line x1="1058.2" y1="137.8" x2="1066.2" y2="137.8" stroke="#1f77b4" stroke-width="1.0"/>
  <line x1="1401.1" y1="140.0" x2="1401.1" y2="120.4" stroke="#1f77b4" stroke-width="1.0"/>
  <line x1="1397.1" y1="140.0" x2="1405.1" y2="140.0" stroke="#1f77b4" stroke-width="1.0"/>
  <line x1="1397.1" y1="120.4" x2="1405.1" y2="120.4" stroke="#1f77b4" stroke-width="1.0"/>
  <polyline points="858.9,148.1 1062.2,143.4 1401.1,130.2" fill="none" stroke="#1f77b4" stroke-width="2"/>
  <circle cx="858.9" cy="148.1" r="4.0" fill="#1f77b4" stroke="white" stroke-width="1"/>
  <circle cx="1062.2" cy="143.4" r="4.0" fill="#1f77b4" stroke="white" stroke-width="1"/>
  <circle cx="1401.1" cy="130.2" r="4.0" fill="#1f77b4" stroke="white" stroke-width="1"/>
  <line x1="858.9" y1="106.7" x2="858.9" y2="85.9" stroke="#ff7f0e" stroke-width="1.0"/>
  <line x1="854.9" y1="106.7" x2="862.9" y2="106.7" stroke="#ff7f0e" stroke-width="1.0"/>
  <line x1="854.9" y1="85.9" x2="862.9" y2="85.9" stroke="#ff7f0e" stroke-width="1.0"/>
  <line x1="1062.2" y1="92.2" x2="1062.2" y2="80.2" stroke="#ff7f0e" stroke-width="1.0"/>
  <line x1="1058.2" y1="92.2" x2="1066.2" y2="92.2" stroke="#ff7f0e" stroke-width="1.0"/>
  <line x1="1058.2" y1="80.2" x2="1066.2" y2="80.2" stroke="#ff7f0e" stroke-width="1.0"/>
  <line x1="1401.1" y1="98.4" x2="1401.1" y2="82.3" stroke="#ff7f0e" stroke-width="1.0"/>
  <line x1="1397.1" y1="98.4" x2="1405.1" y2="98.4" stroke="#ff7f0e" stroke-width="1.0"/>
  <line x1="1397.1" y1="82.3" x2="1405.1" y2="82.3" stroke="#ff7f0e" stroke-width="1.0"/>
  <polyline points="858.9,96.3 1062.2,86.2 1401.1,90.3" fill="none" stroke="#ff7f0e" stroke-width="2"/>
  <circle cx="858.9" cy="96.3" r="4.0" fill="#ff7f0e" stroke="white" stroke-width="1"/>
  <circle cx="1062.2" cy="86.2" r="4.0" fill="#ff7f0e" stroke="white" stroke-width="1"/>
  <circle cx="1401.1" cy="90.3" r="4.0" fill="#ff7f0e" stroke="white" stroke-width="1"/>
  <line x1="858.9" y1="131.9" x2="858.9" y2="114.5" stroke="#d62728" stroke-width="1.0"/>
  <line x1="854.9" y1="131.9" x2="862.9" y2="131.9" stroke="#d62728" stroke-width="1.0"/>
  <line x1="854.9" y1="114.5" x2="862.9" y2="114.5" stroke="#d62728" stroke-width="1.0"/>
  <line x1="1062.2" y1="117.2" x2="1062.2" y2="88.2" stroke="#d62728" stroke-width="1.0"/>
  <line x1="1058.2" y1="117.2" x2="1066.2" y2="117.2" stroke="#d62728" stroke-width="1.0"/>
  <line x1="1058.2" y1="88.2" x2="1066.2" y2="88.2" stroke="#d62728" stroke-width="1.0"/>
  <line x1="1401.1" y1="113.7" x2="1401.1" y2="88.1" stroke="#d62728" stroke-width="1.0"/>
  <line x1="1397.1" y1="113.7" x2="1405.1" y2="113.7" stroke="#d62728" stroke-width="1.0"/>
  <line x1="1397.1" y1="88.1" x2="1405.1" y2="88.1" stroke="#d62728" stroke-width="1.0"/>
  <polyline points="858.9,123.2 1062.2,102.7 1401.1,100.9" fill="none" stroke="#d62728" stroke-width="2"/>
  <circle cx="858.9" cy="123.2" r="4.0" fill="#d62728" stroke="white" stroke-width="1"/>
  <circle cx="1062.2" cy="102.7" r="4.0" fill="#d62728" stroke="white" stroke-width="1"/>
  <circle cx="1401.1" cy="100.9" r="4.0" fill="#d62728" stroke="white" stroke-width="1"/>
  <line x1="858.9" y1="334.2" x2="858.9" y2="329.7" stroke="#2ca02c" stroke-width="1.0"/>
  <line x1="854.9" y1="334.2" x2="862.9" y2="334.2" stroke="#2ca02c" stroke-width="1.0"/>
  <line x1="854.9" y1="329.7" x2="862.9" y2="329.7" stroke="#2ca02c" stroke-width="1.0"/>
  <line x1="1062.2" y1="347.4" x2="1062.2" y2="345.5" stroke="#2ca02c" stroke-width="1.0"/>
  <line x1="1058.2" y1="347.4" x2="1066.2" y2="347.4" stroke="#2ca02c" stroke-width="1.0"/>
  <line x1="1058.2" y1="345.5" x2="1066.2" y2="345.5" stroke="#2ca02c" stroke-width="1.0"/>
  <line x1="1401.1" y1="361.6" x2="1401.1" y2="360.3" stroke="#2ca02c" stroke-width="1.0"/>
  <line x1="1397.1" y1="361.6" x2="1405.1" y2="361.6" stroke="#2ca02c" stroke-width="1.0"/>
  <line x1="1397.1" y1="360.3" x2="1405.1" y2="360.3" stroke="#2ca02c" stroke-width="1.0"/>
  <polyline points="858.9,332.0 1062.2,346.4 1401.1,361.0" fill="none" stroke="#2ca02c" stroke-width="2"/>
  <circle cx="858.9" cy="332.0" r="4.0" fill="#2ca02c" stroke="white" stroke-width="1"/>
  <circle cx="1062.2" cy="346.4" r="4.0" fill="#2ca02c" stroke="white" stroke-width="1"/>
  <circle cx="1401.1" cy="361.0" r="4.0" fill="#2ca02c" stroke="white" stroke-width="1"/>
  <line x1="840.0" y1="69.0" x2="858.0" y2="69.0" stroke="#1f77b4" stroke-width="2.0"/>
  <circle cx="849.0" cy="69.0" r="3.5" fill="#1f77b4" stroke="white" stroke-width="1"/>
  <text x="866.0" y="73.0" font-family="Arial, sans-serif" font-size="12" font-weight="normal" text-anchor="start">bloom</text>
  <line x1="840.0" y1="89.0" x2="858.0" y2="89.0" stroke="#ff7f0e" stroke-width="2.0"/>
  <circle cx="849.0" cy="89.0" r="3.5" fill="#ff7f0e" stroke="white" stroke-width="1"/>
  <text x="866.0" y="93.0" font-family="Arial, sans-serif" font-size="12" font-weight="normal" text-anchor="start">cuckoo</text>
  <line x1="840.0" y1="109.0" x2="858.0" y2="109.0" stroke="#d62728" stroke-width="2.0"/>
  <circle cx="849.0" cy="109.0" r="3.5" fill="#d62728" stroke="white" stroke-width="1"/>
  <text x="866.0" y="113.0" font-family="Arial, sans-serif" font-size="12" font-weight="normal" text-anchor="start">xor</text>
  <line x1="840.0" y1="129.0" x2="858.0" y2="129.0" stroke="#2ca02c" stroke-width="2.0"/>
  <circle cx="849.0" cy="129.0" r="3.5" fill="#2ca02c" stroke="white" stroke-width="1"/>
  <text x="866.0" y="133.0" font-family="Arial, sans-serif" font-size="12" font-weight="normal" text-anchor="start">learned</text>
</svg>
